<svg version="1" xmlns="http://www.w3.org/2000/svg" width="398.667" height="398.667" viewBox="0 0 299.000000 299.000000"><path d="M283 2.4c0 .7-1.6 4.5-3.5 8.4-7.8 15.6-22.2 23.7-58.5 32.7-14.5 3.6-49.6 10.9-57 11.9-2.5.3-5.6.8-7 1.1-1.3.2-4.2.7-6.4 1.1-2.2.3-4.3.7-4.6.9-.3.2-2.3.6-4.4.9C125.1 62 96.9 71.5 79 80.5c-54.4 27.3-76.2 75.6-57.1 127.1 3.2 8.8 6.1 22.2 6.1 28.8.1 5.1 1.5 3.1 2.4-3.4.8-5.9 1.6-10.1 2.2-12.2.3-1 .7-3 1-4.5 1.5-8.5 7-25.1 12-36.2 13.2-28.9 35.6-51.3 65.1-65.3 8.8-4.1 33-13 39.1-14.3 7.5-1.6 46.9-12 51.7-13.7 9.1-3.1 17.6-6.8 21-9 2.1-1.4 1.8-.8-1.3 2-6.3 5.9-26 15.2-63.9 30.2-18.3 7.3-37.6 15.5-42.8 18.3-41.9 22.6-67.8 62.6-74.2 114.7-1 8.1-1 37.6-.1 45 .4 3 .8 6.1.8 6.7 0 .7 1.2 1.9 2.7 2.7 4.5 2.2 9.5-.9 7.2-4.5-1.2-2-2.3-12.3-2.2-20.4.2-6.5 2.1-23.6 2.7-24.3.2-.1 4.2.7 8.9 1.8 16.6 3.9 32.7 4.4 50.7 1.4 6.3-1 23.6-7.2 31.8-11.3 38.1-19.2 74.9-61.1 103.5-118.1 4.1-8 9-18.6 11.1-23.5 2-5 4.1-9.9 4.6-11 5.6-11.9 18.1-52.4 20.4-66 1.8-10.3 2.5-20.5 1.4-20.5-.4 0-.8.6-.8 1.4zm-36.1 93.8c-10.8 24.9-19 40.1-34.2 62.8-27.9 41.9-66.1 70.8-102.7 77.7-9.9 1.9-14.2 2.2-27.2 2-8.1-.2-15.2-.7-15.7-1.2-.7-.7.5-1.1 3.2-1.2 4.1-.2 12.8-1.2 15.7-1.8.8-.2 3.1-.6 5-1 18.5-3.3 44.7-14 61.7-25 21.6-14.1 42.1-33.1 57.4-53 13.2-17.4 22.7-33 33.1-54.2 3.9-7.9 7.1-14.3 7.3-14.3.2 0-1.4 4.2-3.6 9.2z"/><path d="M28.1 242.6c0 1.1.3 1.4.6.6.3-.7.2-1.6-.1-1.9-.3-.4-.6.2-.5 1.3z"/></svg>